<svg width="531" height="451" viewBox="0 0 531 451" fill="none" xmlns="http://www.w3.org/2000/svg">
<path d="M387.04 195.749C387.448 193.183 387.704 190.762 387.607 188.122C387.463 184.225 387.271 186.831 387.393 184.432C387.527 181.792 386.659 180.257 387.393 179.244C387.287 177.519 387.156 175.752 386.839 174.064L386.345 170.322C386.241 169.535 386.384 168.384 386.22 167.658C386.086 167.059 386.013 166.531 385.945 165.671C385.903 165.213 385.708 164.45 385.564 164.007C384.54 160.836 385.866 163.922 384.452 160.58L383.175 157.567L382.282 155.412L381.02 151.695C380.376 149.8 379.569 148.133 378.986 146.21C378.669 145.16 378.157 144.303 377.24 143.912C377.127 142.993 376.816 142.206 376.52 141.37C375.96 139.779 375.31 138.321 374.109 137.133L373.344 135.47C373.183 135.122 372.78 134.692 372.533 134.386C372.61 133.52 372.247 132.57 371.738 131.859L372.442 130.831L370.677 129.497C370.348 128.389 369.784 127.284 370.138 125.947L368.848 125.575C368.647 124.491 367.973 123.469 367.592 122.453C366.946 120.725 366.114 119.104 365.19 117.349C363.267 113.696 364.191 116.8 362.886 113.553C361.405 112.463 359.856 111.263 359.076 109.646C358.262 107.958 356.805 106.606 355.153 105.712C356.271 106.035 350.376 100.483 350.806 100.85L349.334 99.5921C348.337 98.7405 347.048 98.0538 345.752 97.2877L342.862 95.5846L339.47 93.5092L335.961 91.0644C335.806 90.9545 335.446 90.8233 335.279 90.7287C334.184 90.106 331.98 88.9768 330.734 88.583L329.832 88.0336C328.051 86.9501 327.612 87.2645 327.036 86.1505C326.567 85.2379 324.192 85.1066 323.18 85.2593L321.739 84.8899C321.739 84.8899 321.72 84.8838 321.708 84.8808C321.37 84.1391 321.455 83.9194 321.23 83.8827L320.041 83.6813C319.977 83.6721 319.867 83.6905 319.776 83.7027L317.526 82.5245L314.865 81.7005C313.64 81.322 312.554 80.2477 311.265 80.0279C309.826 79.4572 308.29 79.0604 306.754 78.7246C305.976 77.7785 301.645 76.1639 299.984 75.6542L294.607 74.0091L291.193 73.1209C287.602 72.187 284.216 71.2683 280.524 70.8013L274.641 70.0566C272.706 69.8124 270.688 70.1268 268.895 69.6842C268.362 69.553 267.999 69.6384 267.24 69.5499L262.775 69.028C262.003 68.9365 261.101 69.0921 260.364 69.1684L254.27 69.7972C252.094 70.02 249.893 70.4839 247.817 70.8105C246.979 70.7067 245.674 70.5266 244.787 70.8349L241.066 72.1198C240.383 72.3548 239.359 72.7852 238.731 73.069C239.416 72.7577 232.427 73.8565 232.875 74.2777C232.022 74.2502 230.939 74.4669 230.196 74.8423C228.864 75.5169 228.202 75.6084 225.953 76.637C225.581 76.8079 224.828 77.0124 224.328 77.1833L221.298 78.2058C220.783 78.3798 220.195 78.5232 219.661 78.7796C218.844 79.1764 217.991 79.6311 217.089 79.7898L215.973 79.9821C215.714 80.0279 215.564 80.6444 215.537 80.8978L210.562 83.2082C207.575 84.5939 206.38 84.8106 204.265 85.9246C202.975 86.6052 201.75 87.3133 200.546 88.1038C199.336 88.8974 197.888 89.4498 196.623 90.1366C196.269 90.3288 192.365 92.9048 192.426 93.3688C190.652 94.0738 189.039 95.2062 187.457 96.4972L179.892 102.663C179.142 103.273 178.474 103.865 177.846 104.582L175.301 107.5C174.743 108.141 174.28 108.971 173.777 109.667C173.512 110.036 173.271 110.403 173.149 110.894C172.524 111.431 171.915 112.026 171.262 112.67C168.845 115.063 171.012 113.44 169.205 115.24C169.183 115.945 166.544 118.589 166.068 119.294C164.965 120.93 164.023 122.312 162.868 123.725C162.752 123.866 160.52 128.047 160.347 128.508L158.823 132.549C159.935 129.601 155.22 140.014 155.863 138.614C155.759 138.839 155.637 139.297 155.552 139.551L154.314 143.164C154.11 143.756 153.802 144.388 153.714 145.035L153.086 145.716C152.257 146.616 151.772 147.825 151.166 149.088C150.775 149.903 150.501 150.398 150.568 151.478C150.318 151.964 149.587 152.827 149.401 153.322L148.218 156.481C147.127 159.392 148.139 159.164 146.709 162.582C145.237 166.104 146.279 165.027 145.685 169.953L145.252 173.542C145.039 175.315 145.216 177.302 145.405 178.957C145.295 179.75 145.152 180.568 145.072 181.523L144.746 185.455C144.734 185.613 144.237 185.888 144.133 185.793L143.627 185.348L144.042 192.703C144.091 193.592 144.042 195.194 143.923 196.039C143.615 198.222 143.923 200.187 144.414 202.501C144.655 203.636 144.734 204.796 145.094 205.782C145.392 206.603 145.347 207.668 145.423 208.556C145.539 209.951 145.725 211.462 146.02 212.838C146.212 213.742 146.523 214.752 146.804 215.753L147.422 217.966C147.581 218.531 147.889 219.135 148.191 219.556L148.697 221.641C149.05 223.09 149.437 224.397 150.093 225.66C150.623 229.469 153.251 232.955 154.616 235.4L155.793 237.506L156.402 238.443C156.917 239.593 157.533 240.726 158.243 241.754C158.317 241.998 158.469 242.447 158.551 242.673C159.862 246.287 160.591 246.14 162.234 247.837C163.288 248.927 164.309 250.19 165.27 251.484C165.891 252.324 166.406 253.188 167.293 253.45C167.498 254.213 168.22 254.875 168.653 255.538C169.464 256.783 170.421 258.01 171.866 258.526C172.225 259.493 172.908 260.32 173.664 261.132L175.027 262.594C175.472 263.583 175.789 264.88 176.344 265.836L178.59 269.706C178.59 269.706 178.992 269.3 179.163 269.388L180.111 269.883C181.562 270.64 182.446 271.494 182.909 272.968L185.086 275.087C185.674 275.66 186.345 276.42 187.049 277.022C187.351 277.278 188.192 277.482 188.451 277.751C190.073 279.454 192.551 280.306 193.764 281.838C194.59 282.882 195.413 283.108 196.358 283.596C197.102 283.98 198.123 285.4 199.089 285.418L200.327 286.022C201.226 286.779 202.244 287.497 203.372 287.591C203.734 287.976 204.378 288.318 204.887 288.473C206.024 289.636 207.651 289.99 209.185 290.68C210.873 291.44 212.333 292.569 213.989 293.064L217.095 293.991C218.033 295.13 219.631 295.505 221.06 295.878C222.676 297.251 221.329 295.78 225.227 297.993C226.23 298.56 227.882 298.463 228.967 299C236.009 294.007 249.631 285.491 260.995 285.21C277.107 284.811 264.375 266.089 289.638 262.704C289.638 262.704 286.06 283.419 319.873 286.007C323.025 286.248 325.851 286.602 328.381 287.045C328.563 286.874 328.731 286.648 328.899 286.328L330.334 285.815C330.712 285.674 331.164 284.942 331.365 284.57L331.685 283.968C332.563 284.557 332.941 283.483 333.569 283.037C335.647 281.557 338.043 280.397 339.577 278.465C340.698 278.386 342.28 277.351 342.905 276.594C343.137 276.314 343.71 275.77 343.996 275.541C345.045 274.922 345.877 274.403 346.362 273.512L347.63 272.66C348.343 272.181 349.62 271.677 349.696 270.771C351.026 270.209 353.162 267.978 354.827 267.194L355.497 266.19C356.835 265.158 358.088 263.824 359.347 262.472L361.551 260.101C362.182 259.423 362.715 258.7 363.051 257.94C363.81 257.644 364.904 257 365.209 256.139L366.675 255.782L367.102 253.12C367.544 252.782 368.095 252.046 368.345 251.533L369.513 249.156L370.278 248.277C370.982 246.574 372.832 244.983 373.451 242.774L374.021 241.812L376.889 236.19C377.56 234.878 377.77 233.364 378.355 232.036L380.261 227.721C380.453 227.177 379.508 225.917 380.163 225.431L381.346 223.484C382.205 222.526 382.157 221.299 382.562 220.081C382.876 219.135 383.479 218.057 383.723 217.011L384.351 214.306L385.208 209.466C385.525 207.68 386.171 203.349 385.936 201.787L386.842 200.578L386.82 199.952C387.436 198.722 386.848 197.095 387.064 195.734L387.04 195.749ZM210.928 145.954L206.207 153.163L201.482 145.954C199.333 142.673 196.583 139.92 193.307 137.768L186.107 133.037L193.307 128.31C196.583 126.158 199.333 123.402 201.482 120.124L206.207 112.915L210.928 120.124C213.077 123.405 215.83 126.158 219.103 128.31L226.303 133.037L219.103 137.768C215.827 139.92 213.077 142.673 210.928 145.954ZM253.965 210.604L252.194 215.259C251.634 216.736 250.198 217.694 248.619 217.645L224.392 216.898C222.865 216.852 221.521 215.869 221.012 214.425L217.796 205.3C217.064 203.227 218.286 200.975 220.42 200.459L228.373 198.536C229.135 198.353 229.818 197.932 230.327 197.334L235.984 190.671C236.768 189.746 237.953 189.267 239.157 189.38L256.23 191.006L275.848 192.288C276.623 192.34 277.36 192.63 277.958 193.125L287.733 201.164C288.919 202.141 289.382 203.746 288.898 205.205L286.925 211.132C286.422 212.64 285.017 213.659 283.432 213.669L275.678 213.711C274.772 213.717 273.897 213.391 273.218 212.793L269.042 209.136C268.365 208.544 267.499 208.217 266.603 208.217H257.431C255.895 208.217 254.517 209.167 253.968 210.607L253.965 210.604ZM331.386 253.749C317.858 266.495 315.487 280.489 319.651 283.425C319.651 283.425 282.057 279.939 293.991 256.636C304.571 235.977 325.817 245.185 316.468 229.848C316.468 229.848 344.914 241 331.386 253.749ZM335.032 239.209C335.032 239.209 325.616 222.279 290.608 226.86C274.873 228.92 265.969 223.051 260.937 215.973C261.662 215.747 262.372 215.57 263.061 215.57C263.75 215.57 264.299 215.738 264.823 216.08C265.701 216.65 266.82 216.965 267.966 216.965C268.524 216.965 269.072 216.895 269.587 216.751C272.325 217.795 275.528 218.308 279.265 217.996C290.519 217.069 299.551 216.067 307.549 216.281C317.285 216.534 323.589 206.115 318.968 197.532C316.743 193.405 313.816 189.322 309.96 185.888C311.835 186.422 313.768 186.935 315.773 187.033C322.446 191.318 330.74 199.604 335.029 215.311C335.029 215.311 339.275 229.451 335.029 239.212L335.032 239.209ZM351.297 176.64L347.99 185.198C347.477 186.52 346.222 187.405 344.807 187.439L330.295 187.793C329.225 187.82 328.201 187.353 327.518 186.532L320.562 178.175C319.922 177.406 318.983 176.948 317.983 176.915L307.924 176.591C306.482 176.545 305.16 177.388 304.59 178.716L302.279 184.115C301.776 185.293 300.67 186.102 299.399 186.224L283.45 187.78C283.097 187.814 282.74 187.796 282.39 187.722L254.99 181.969C254.91 181.954 254.831 181.939 254.749 181.926L219.774 177.095C217.576 176.793 216.211 174.546 216.948 172.449L220.298 162.948C220.701 161.804 221.667 160.949 222.853 160.69L238.103 157.338C238.996 157.143 239.776 156.606 240.276 155.843L251.664 138.54C252.261 137.634 253.24 137.057 254.322 136.972L281.85 134.85C281.957 134.841 282.064 134.838 282.167 134.841L313.32 135.281C313.847 135.287 314.365 135.415 314.838 135.65L334.251 145.368C335.708 146.097 336.47 147.733 336.092 149.32L332.928 162.631C332.52 164.349 333.45 166.101 335.099 166.727L349.264 172.083C351.083 172.773 351.995 174.815 351.294 176.634L351.297 176.64Z" fill="#00CA76"/>
<path d="M180.861 355.522V366.933C180.861 372.597 178.045 377.832 173.518 380.574C171.385 381.777 168.908 382.463 166.256 382.463H165.83C162.926 382.376 160.023 381.518 157.032 379.887C155.752 379.2 153.445 378.085 151.995 378.942C151.055 379.541 150.541 380.914 150.541 381.689H142C142 379.2 142.94 376.195 144.991 373.794V323.857H153.532V341.964C156.436 339.904 159.683 338.618 163.014 338.272C166.601 337.932 171.894 338.789 175.738 342.305C177.362 343.849 178.641 345.651 179.494 347.798C180.435 350.029 180.861 352.688 180.861 355.522ZM172.32 355.522C172.32 352.435 171.55 350.117 170.013 348.655C168.05 346.941 165.146 346.683 163.779 346.854C161.39 347.024 158.656 348.397 156.693 350.457C154.642 352.517 153.532 355.006 153.532 357.236V370.108H153.959C156.266 370.196 158.656 370.965 161.133 372.338C163.353 373.624 166.513 374.739 169.16 373.113C171.123 371.998 172.32 369.597 172.32 366.933V355.522Z" fill="black"/>
<path d="M225.617 344.623C228.778 348.485 230.314 353.803 230.314 360.412C230.314 367.02 228.778 372.338 225.617 376.2C223.824 378.26 221.686 379.892 219.127 381.007C216.65 382.035 213.746 382.639 210.586 382.639C207.425 382.639 204.522 382.04 202.045 381.007C199.48 379.892 197.348 378.26 195.554 376.2C192.394 372.338 190.857 367.02 190.857 360.412C190.857 353.803 192.394 348.485 195.554 344.623C197.348 342.48 199.48 340.849 202.045 339.816C204.522 338.701 207.425 338.185 210.586 338.185C213.746 338.185 216.65 338.701 219.127 339.816C221.691 340.844 223.824 342.475 225.617 344.623ZM221.773 360.412C221.773 355.863 220.833 352.347 218.957 350.116C217.164 347.886 214.43 346.771 210.586 346.771C206.742 346.771 204.008 347.886 202.214 350.116C200.333 352.347 199.398 355.868 199.398 360.412C199.398 364.955 200.338 368.476 202.214 370.707C204.008 372.937 206.742 374.052 210.586 374.052C214.43 374.052 217.164 372.937 218.957 370.707C220.838 368.476 221.773 364.873 221.773 360.412Z" fill="black"/>
<path d="M276.602 355.176V381.689H268.061V355.176C268.061 352.089 267.377 349.858 265.923 348.568C263.703 346.595 260.203 346.853 259.52 346.853C257.13 347.112 254.483 348.485 252.433 350.628C250.382 352.77 249.272 355.347 249.272 357.665V381.689H240.731V339.217H249.272V342.134C252.176 339.992 255.424 338.618 258.666 338.36C261.056 338.102 267.038 338.019 271.648 342.222C273.272 343.683 274.464 345.485 275.322 347.628C276.18 349.771 276.602 352.347 276.602 355.176Z" fill="black"/>
<path d="M299.836 382.205C296.161 381.606 292.492 380.749 290.611 380.062L293.602 371.997C295.822 372.855 305.643 374.827 310.088 374.058C311.198 373.887 312.138 372.772 312.308 371.569C312.565 369.855 311.198 368.135 308.464 366.85C306.501 365.905 302.996 364.361 300.092 363.158C298.386 362.384 296.932 361.785 295.992 361.356C290.95 359.038 287.964 354.577 288.047 349.6C288.134 347.37 288.9 345.139 290.184 343.337C291.551 341.448 293.432 339.992 295.735 339.134C298.638 337.931 302.739 337.931 308.032 338.876C311.959 339.651 315.546 340.766 317 341.365L314.009 349.43C309.569 347.715 301.542 346.084 298.72 347.111C297.441 347.628 296.67 348.655 296.588 349.858C296.588 351.319 297.61 352.688 299.491 353.55C300.344 353.891 301.799 354.495 303.417 355.264C306.408 356.467 309.995 358.093 312.128 359.038C315.289 360.582 317.596 362.554 319.133 365.043C320.587 367.361 321.183 370.02 320.757 372.679C320.16 377.656 316.316 381.689 311.619 382.546C310.34 382.716 308.973 382.804 307.606 382.804C304.872 382.804 302.056 382.463 299.836 382.205Z" fill="black"/>
<path d="M369.695 381.694H361.154C361.154 380.837 360.815 379.634 360.132 379.293C359.361 378.777 357.485 378.777 354.494 380.32C351.503 381.776 348.517 382.463 345.696 382.463C344.159 382.463 342.705 382.293 341.338 381.864C337.664 380.749 334.59 378.26 332.797 374.744C331.003 371.399 330.49 367.537 331.43 363.845C332.453 359.9 335.017 356.467 338.774 354.319C341.338 352.775 344.581 352.089 348.086 352.347C351.328 352.605 354.576 353.55 357.48 355.264C357.737 355.352 357.994 355.522 358.251 355.692V354.918C358.251 350.54 356.37 349.172 355.774 348.738C351.76 345.65 342.88 346.766 336.471 348.567L334.082 340.332C336.302 339.733 340.66 338.618 345.526 338.36C352.104 337.931 357.228 339.134 360.897 341.876C362.778 343.332 364.227 345.139 365.255 347.282C366.278 349.512 366.792 352.089 366.792 354.918V373.712C368.924 376.112 369.695 379.205 369.695 381.694ZM358.251 370.454C358.081 366.163 355.003 363.762 353.214 362.647C351.164 361.532 348.856 360.933 346.724 360.933C345.357 360.933 344.077 361.191 343.049 361.79C339.293 363.933 338.779 367.97 340.315 370.712C342.109 374.145 346.035 374.915 350.732 372.602C353.636 371.14 356.113 370.541 358.245 370.459L358.251 370.454Z" fill="black"/>
<path d="M379.434 327.889C379.434 325.143 381.654 323 384.388 323C387.122 323 389.255 325.143 389.255 327.889C389.255 330.636 387.117 332.867 384.388 332.867C381.66 332.867 379.434 330.636 379.434 327.889ZM380.03 339.217H388.572V381.606H380.03V339.217Z" fill="black"/>
</svg>
